<?xml version="1.0" encoding="utf-8"?>
<svg viewBox="149.362 165.278 145.611 86.186" xmlns="http://www.w3.org/2000/svg">
  <rect x="152.929" y="168.677" width="137.6" height="74.6" style="fill:#317622;stroke:#fff;stroke-linecap:round;stroke-linejoin:round;stroke-width:2.361599922180176px"/>
  <path d="M 254.029 241.777 C 254.029 241.777 241.429 217.777 238.629 214.277 C 238.629 214.277 271.529 205.277 273.429 205.177 C 273.429 205.177 285.629 219.477 289.929 230.377 C 289.929 230.377 277.829 232.177 254.029 241.777 Z" style="fill:#9d9d9c"/>
  <path d="M 152.929 202.877 C 152.929 202.877 215.129 147.877 290.529 181.177" style="fill:none;stroke:#fff;stroke-linejoin:bevel;stroke-width:3.5425000190734863px"/>
  <path d="M 177.329 186.877 C 177.329 186.877 168.729 189.777 169.929 212.677 C 171.129 235.577 175.329 243.177 175.329 243.177" style="fill:none;stroke:#fff;stroke-linejoin:bevel;stroke-width:3.5425000190734863px"/>
  <line x1="188.429" y1="181.677" x2="213.229" y2="243.177" style="fill:none;stroke:#fff;stroke-linejoin:bevel;stroke-width:3.5425000190734863px"/>
  <path d="M 198.929 177.477 C 198.929 177.477 207.829 174.277 223.429 192.877 C 239.029 211.477 254.829 243.177 254.829 243.177" style="fill:none;stroke:#fff;stroke-linejoin:bevel;stroke-width:3.5425000190734863px"/>
  <path d="M 210.229 174.177 C 210.229 174.177 228.929 170.677 248.229 183.577 C 275.329 201.777 284.529 219.077 290.029 230.377" style="fill:none;stroke:#fff;stroke-linejoin:bevel;stroke-width:3.5425000190734863px"/>
  <path d="M 152.729 221.077 C 152.729 221.077 209.429 182.277 284.129 178.477" style="fill:none;stroke:#fff;stroke-linejoin:bevel;stroke-width:3.5425000190734863px"/>
  <path d="M 173.729 242.877 C 173.729 242.877 210.429 217.177 290.529 201.577" style="fill:none;stroke:#fff;stroke-linejoin:bevel;stroke-width:3.5425000190734863px"/>
  <path d="M 253.429 242.877 C 253.429 242.877 277.329 232.077 290.529 230.477" style="fill:none;stroke:#fff;stroke-linejoin:bevel;stroke-width:3.5425000190734863px"/>
</svg>