<?xml version="1.0" encoding="UTF-8"?>
<!DOCTYPE svg PUBLIC "-//W3C//DTD SVG 1.1//EN" "http://www.w3.org/Graphics/SVG/1.1/DTD/svg11.dtd">
<svg version="1.1" xmlns="http://www.w3.org/2000/svg" xmlns:xlink="http://www.w3.org/1999/xlink" x="0" y="0" width="1920" height="1080" viewBox="0, 0, 1920, 1080">
  <g id="Layer_1">
    <g id="Layer_1">
      <path d="M961.9,1568 C919.8,1568 878.4,1560.9 838.7,1546.8 C793.5,1530.8 752.3,1506.5 716.3,1474.5 C680.3,1442.6 651.2,1404.6 630,1361.6 C608,1317.1 595.3,1269.2 592.3,1219.3 C589.3,1169.3 596.2,1120.3 612.8,1073.5 C628.8,1028.3 653.1,987.1 685.1,951.1 C717,915.1 755,886 798,864.8 C842.5,842.8 890.4,830.1 940.3,827.1 C990.3,824.1 1039.3,831 1086.1,847.6 C1131.3,863.6 1172.5,887.9 1208.5,919.9 C1244.5,951.8 1273.6,989.8 1294.8,1032.8 C1316.8,1077.3 1329.5,1125.2 1332.5,1175.1 C1335.5,1225.1 1328.6,1274.1 1312,1320.9 C1296,1366.1 1271.7,1407.3 1239.7,1443.3 C1207.8,1479.3 1169.8,1508.4 1126.8,1529.6 C1082.3,1551.6 1034.4,1564.3 984.5,1567.3 C977,1567.8 969.4,1568 961.9,1568 z M962.8,896.4 C956.7,896.4 950.6,896.6 944.4,896.9 C864.2,901.7 790.7,937.4 737.4,997.5 C684.1,1057.6 657.4,1134.9 662.2,1215.1 C667,1295.3 702.7,1368.8 762.8,1422.1 C818.3,1471.3 888.4,1497.9 962,1497.9 C968.1,1497.9 974.2,1497.7 980.4,1497.4 C1060.6,1492.6 1134.1,1456.9 1187.4,1396.8 C1240.7,1336.7 1267.4,1259.4 1262.6,1179.2 C1257.8,1099 1222.1,1025.5 1162,972.2 C1106.5,923 1036.3,896.4 962.8,896.4 z" fill="#FFFFFF"/>
      <path d="M2294.7,207.8 C2294.7,478.143 2075.543,697.3 1805.2,697.3 C1534.857,697.3 1315.7,478.143 1315.7,207.8 C1315.7,-62.543 1534.857,-281.7 1805.2,-281.7 C2075.543,-281.7 2294.7,-62.543 2294.7,207.8 z" fill="#FFFFFF"/>
      <g>
        <path d="M-303.575,-717.961 L837.425,-717.961 L837.425,423.039 L-303.575,423.039 z" fill="#FFFFFF"/>
        <path d="M746.6,-147.9 C746.6,117.252 531.652,332.2 266.5,332.2 C1.348,332.2 -213.6,117.252 -213.6,-147.9 C-213.6,-413.052 1.348,-628 266.5,-628 C531.652,-628 746.6,-413.052 746.6,-147.9 z" fill="#FFFFFF"/>
      </g>
      <g>
        <path d="M1805.1,352.9 C1803.7,352.9 1802.6,351.8 1802.6,350.4 C1802.6,349 1803.7,347.9 1805.1,347.9 C1806.5,347.9 1807.6,349 1807.6,350.4 C1807.6,351.8 1806.5,352.9 1805.1,352.9 z" fill="#FFFFFF"/>
        <path d="M1815.2,352.9 C1813.8,352.9 1812.7,351.8 1812.7,350.4 C1812.7,349 1813.8,347.9 1815.2,347.9 C1816.6,347.9 1817.7,349 1817.7,350.4 C1817.6,351.8 1816.5,352.9 1815.2,352.9 z" fill="#FFFFFF"/>
        <path d="M1795.1,363 C1793.7,363 1792.6,361.9 1792.6,360.5 C1792.6,359.1 1793.7,358 1795.1,358 C1796.5,358 1797.6,359.1 1797.6,360.5 C1797.6,361.9 1796.4,363 1795.1,363 z" fill="#FFFFFF"/>
        <path d="M1805.1,363 C1803.7,363 1802.6,361.9 1802.6,360.5 C1802.6,359.1 1803.7,358 1805.1,358 C1806.5,358 1807.6,359.1 1807.6,360.5 C1807.6,361.9 1806.5,363 1805.1,363 z" fill="#FFFFFF"/>
        <path d="M1815.2,363 C1813.8,363 1812.7,361.9 1812.7,360.5 C1812.7,359.1 1813.8,358 1815.2,358 C1816.6,358 1817.7,359.1 1817.7,360.5 C1817.7,361.9 1816.5,363 1815.2,363 z" fill="#FFFFFF"/>
        <path d="M1795.1,373 C1793.7,373 1792.6,371.9 1792.6,370.5 C1792.6,369.1 1793.7,368 1795.1,368 C1796.5,368 1797.6,369.1 1797.6,370.5 C1797.6,371.9 1796.4,373 1795.1,373 z" fill="#FFFFFF"/>
        <path d="M1805.1,373 C1803.7,373 1802.6,371.9 1802.6,370.5 C1802.6,369.1 1803.7,368 1805.1,368 C1806.5,368 1807.6,369.1 1807.6,370.5 C1807.6,371.9 1806.5,373 1805.1,373 z" fill="#FFFFFF"/>
      </g>
      <path d="M410.1,365.5 C406.2,365.5 403.1,362.4 403.1,358.5 C403.1,354.6 406.2,351.5 410.1,351.5 C414,351.5 417.1,354.6 417.1,358.5 C417.1,362.4 414,365.5 410.1,365.5 z" fill="#FFFFFF"/>
      <path d="M1082.1,1012.5 C1078.2,1012.5 1075.1,1009.4 1075.1,1005.5 C1075.1,1001.6 1078.2,998.5 1082.1,998.5 C1086,998.5 1089.1,1001.6 1089.1,1005.5 C1089.1,1009.4 1086,1012.5 1082.1,1012.5 z" fill="#FFFFFF"/>
      <g>
        <path d="M957.2,989.9 C955.8,989.9 954.7,988.8 954.7,987.4 C954.7,986 955.8,984.9 957.2,984.9 C958.6,984.9 959.7,986 959.7,987.4 C959.7,988.8 958.5,989.9 957.2,989.9 z" fill="#FFFFFF"/>
        <path d="M947.1,1000 C945.7,1000 944.6,998.9 944.6,997.5 C944.6,996.1 945.7,995 947.1,995 C948.5,995 949.6,996.1 949.6,997.5 C949.6,998.9 948.5,1000 947.1,1000 z" fill="#FFFFFF"/>
        <path d="M937.1,1010 C935.7,1010 934.6,1008.9 934.6,1007.5 C934.6,1006.1 935.7,1005 937.1,1005 C938.5,1005 939.6,1006.1 939.6,1007.5 C939.6,1008.9 938.4,1010 937.1,1010 z" fill="#FFFFFF"/>
      </g>
      <path d="M1701.5,131 C1701.5,127.4 1704.5,124.4 1708.1,124.4 C1711.7,124.4 1714.7,127.4 1714.7,131 L1722.6,131 C1722.6,123 1716.1,116.5 1708.1,116.5 C1700.1,116.5 1693.6,123 1693.6,131 L1701.5,131 z" fill="#FFFFFF"/>
      <path d="M1849,550 L1828,550 L1849,529 z" fill="#FFFFFF"/>
      <path d="M272.6,268.4 C272.1,268.4 271.6,268.2 271.2,267.8 C270.4,267 270.4,265.8 271.2,265 L280.9,255.3 C281.7,254.5 283,254.5 283.7,255.3 L289.8,261.4 L298.1,253.1 C298.9,252.3 300.1,252.3 300.9,253.1 C301.7,253.9 301.7,255.1 300.9,255.9 L291.2,265.6 C290.4,266.4 289.1,266.4 288.4,265.6 L282.3,259.5 L274,267.8 C273.6,268.2 273.1,268.4 272.6,268.4 z" fill="#FFFFFF"/>
      <path d="M1528.1,1287.8 C1451.8,1287.8 1377.7,1272.8 1308,1243.4 C1240.7,1214.9 1180.2,1174.2 1128.3,1122.2 C1076.4,1070.2 1035.6,1009.8 1007.1,942.5 C977.6,872.8 962.7,798.7 962.7,722.4 C962.7,646.1 977.7,572 1007.1,502.3 C1035.6,435 1076.3,374.5 1128.3,322.6 C1180.3,270.7 1240.7,229.9 1308,201.4 C1377.7,171.9 1451.8,157 1528.1,157 C1604.4,157 1678.5,172 1748.2,201.4 C1815.5,229.9 1876,270.6 1927.9,322.6 C1979.8,374.6 2020.6,435 2049.1,502.3 C2078.6,572 2093.5,646.1 2093.5,722.4 C2093.5,798.7 2078.5,872.8 2049.1,942.5 C2020.6,1009.8 1979.9,1070.3 1927.9,1122.2 C1875.9,1174.1 1815.5,1214.9 1748.2,1243.4 C1678.5,1272.8 1604.4,1287.8 1528.1,1287.8 z M1528.1,160.9 C1452.3,160.9 1378.8,175.7 1309.6,205 C1242.7,233.3 1182.7,273.8 1131.1,325.3 C1079.5,376.8 1039.1,436.9 1010.8,503.8 C981.5,573 966.7,646.5 966.7,722.3 C966.7,798.1 981.5,871.6 1010.8,940.8 C1039.1,1007.7 1079.6,1067.7 1131.1,1119.3 C1182.6,1170.9 1242.7,1211.3 1309.6,1239.6 C1378.8,1268.9 1452.3,1283.7 1528.1,1283.7 C1603.9,1283.7 1677.4,1268.9 1746.6,1239.6 C1813.5,1211.3 1873.5,1170.8 1925.1,1119.3 C1976.7,1067.8 2017.1,1007.7 2045.4,940.8 C2074.7,871.6 2089.5,798.1 2089.5,722.3 C2089.5,646.5 2074.7,573 2045.4,503.8 C2017.1,436.9 1976.6,376.9 1925.1,325.3 C1873.6,273.7 1813.5,233.3 1746.6,205 C1677.4,175.7 1603.9,160.9 1528.1,160.9 z" fill="#FFFFFF"/>
      <path d="M1528.1,1029.7 C1446,1029.7 1368.8,997.7 1310.8,939.7 C1252.8,881.7 1220.8,804.5 1220.8,722.4 C1220.8,640.3 1252.8,563.1 1310.8,505.1 C1368.8,447.1 1446,415.1 1528.1,415.1 C1610.2,415.1 1687.4,447.1 1745.4,505.1 C1803.4,563.1 1835.4,640.3 1835.4,722.4 C1835.4,804.5 1803.4,881.7 1745.4,939.7 C1687.3,997.7 1610.2,1029.7 1528.1,1029.7 z M1528.1,419 C1447.1,419 1370.9,450.6 1313.6,507.8 C1256.3,565 1224.8,641.3 1224.8,722.3 C1224.8,803.3 1256.4,879.5 1313.6,936.8 C1370.8,994.1 1447.1,1025.6 1528.1,1025.6 C1609.1,1025.6 1685.3,994 1742.6,936.8 C1799.9,879.6 1831.4,803.3 1831.4,722.3 C1831.4,641.3 1799.8,565.1 1742.6,507.8 C1685.4,450.5 1609.1,419 1528.1,419 z" fill="#FFFFFF"/>
      <path d="M-119,686.8 C-186.2,686.8 -251.3,673.6 -312.6,647.7 C-371.8,622.6 -425,586.8 -470.7,541.1 C-516.4,495.4 -552.2,442.2 -577.3,383 C-603.2,321.7 -616.4,256.5 -616.4,189.4 C-616.4,122.3 -603.2,57.1 -577.3,-4.2 C-552.2,-63.4 -516.4,-116.6 -470.7,-162.3 C-425,-208 -371.8,-243.8 -312.6,-268.9 C-251.3,-294.8 -186.1,-308 -119,-308 C-51.9,-308 13.3,-294.9 74.6,-269 C133.8,-243.9 187,-208.1 232.7,-162.4 C278.4,-116.7 314.2,-63.5 339.3,-4.3 C365.2,57 378.4,122.2 378.4,189.3 C378.4,256.4 365.3,321.6 339.4,383 C314.3,442.2 278.5,495.4 232.8,541.1 C187.1,586.8 133.9,622.6 74.7,647.7 C13.3,673.6 -51.8,686.8 -119,686.8 z M-119,-304.1 C-185.6,-304.1 -250.2,-291.1 -311.1,-265.3 C-369.9,-240.4 -422.6,-204.9 -467.9,-159.6 C-513.2,-114.3 -548.8,-61.5 -573.6,-2.8 C-599.3,58 -612.4,122.6 -612.4,189.3 C-612.4,256 -599.4,320.5 -573.6,381.4 C-548.7,440.2 -513.2,492.9 -467.9,538.2 C-422.6,583.5 -369.8,619.1 -311.1,643.9 C-250.3,669.6 -185.6,682.7 -119,682.7 C-52.4,682.7 12.2,669.7 73.1,643.9 C131.9,619 184.6,583.5 229.9,538.2 C275.2,492.9 310.8,440.1 335.6,381.4 C361.3,320.6 374.4,255.9 374.4,189.3 C374.4,122.7 361.4,58.1 335.6,-2.8 C310.7,-61.6 275.2,-114.3 229.9,-159.6 C184.6,-204.9 131.8,-240.5 73.1,-265.3 C12.3,-291 -52.4,-304.1 -119,-304.1 z" fill="#FFFFFF"/>
      <path d="M-22.1,812 C-24.3,812 -26.1,810.1 -26,807.9 L-26,807.9 C-26,805.7 -24.1,803.9 -21.9,804 L-21.9,804 C-19.7,804 -17.9,805.9 -18,808.1 L-18,808.1 C-18.1,810.2 -19.9,812 -22.1,812 L-22.1,812 C-22.1,812 -22.1,812 -22.1,812 z M13.8,805.3 C13.4,803.1 14.8,801 17,800.6 L17,800.6 C19.2,800.2 21.3,801.6 21.7,803.8 L21.7,803.8 C22.1,806 20.7,808.1 18.5,808.5 L18.5,808.5 L18.5,808.5 L18.5,808.5 C18.2,808.5 18,808.6 17.7,808.6 L17.7,808.6 C15.8,808.5 14.1,807.2 13.8,805.3 z M-62.6,807.1 C-64.8,806.6 -66.1,804.5 -65.6,802.3 L-65.6,802.3 C-65.1,800.1 -63,798.8 -60.8,799.3 L-60.8,799.3 C-58.7,799.8 -57.3,801.9 -57.8,804.1 L-57.8,804.1 C-58.2,806 -59.9,807.2 -61.7,807.2 L-61.7,807.2 C-62,807.2 -62.3,807.2 -62.6,807.1 z M-89.6,799 L-89.6,799 L-89.6,799 C-91.7,798.2 -92.7,795.9 -91.9,793.8 L-91.9,793.8 C-91.1,791.7 -88.8,790.7 -86.7,791.5 L-86.7,791.5 C-84.6,792.3 -83.6,794.6 -84.4,796.7 L-84.4,796.7 C-85,798.3 -86.5,799.3 -88.1,799.3 L-88.1,799.3 C-88.7,799.2 -89.1,799.2 -89.6,799 z M52.2,794.6 C51.3,792.6 52.3,790.2 54.4,789.4 L54.4,789.4 C56.4,788.6 58.8,789.5 59.6,791.6 L59.6,791.6 C60.4,793.6 59.5,796 57.4,796.8 L57.4,796.8 C57.4,796.8 57.4,796.8 57.4,796.8 L57.4,796.8 C56.9,797 56.4,797.1 55.9,797.1 L55.9,797.1 C54.4,797 52.9,796.1 52.2,794.6 z M-126,780.8 C-127.9,779.6 -128.4,777.1 -127.2,775.3 L-127.2,775.3 C-126,773.4 -123.5,772.9 -121.7,774.1 L-121.7,774.1 C-119.8,775.3 -119.3,777.8 -120.5,779.6 L-120.5,779.6 C-121.3,780.8 -122.5,781.4 -123.9,781.4 L-123.9,781.4 C-124.6,781.4 -125.4,781.2 -126,780.8 z M87.8,776.3 C86.6,774.5 87,772 88.9,770.7 L88.9,770.7 C90.7,769.5 93.2,769.9 94.5,771.8 L94.5,771.8 C95.7,773.6 95.3,776.1 93.4,777.4 L93.4,777.4 L93.4,777.4 L93.4,777.4 C92.7,777.9 91.9,778.1 91.2,778.1 L91.2,778.1 C89.8,778 88.5,777.4 87.8,776.3 z M-158,755.5 C-159.6,754 -159.6,751.4 -158.1,749.9 L-158.1,749.9 C-156.6,748.3 -154,748.3 -152.4,749.8 L-152.4,749.8 C-150.8,751.3 -150.8,753.9 -152.3,755.5 L-152.3,755.5 C-153.1,756.3 -154.1,756.7 -155.2,756.7 L-155.2,756.7 C-156.2,756.6 -157.2,756.2 -158,755.5 z M118.8,751.2 C117.2,749.7 117.2,747.1 118.7,745.5 L118.7,745.5 C120.2,743.9 122.8,743.9 124.3,745.4 L124.3,745.4 C125.9,746.9 125.9,749.5 124.4,751.1 L124.4,751.1 C123.6,751.9 122.6,752.3 121.5,752.3 L121.5,752.3 C120.6,752.3 119.6,752 118.8,751.2 z M-184.1,724.2 L-184.1,724.2 L-184.1,724.2 C-185.3,722.4 -184.9,719.9 -183,718.6 L-183,718.6 C-181.2,717.4 -178.7,717.8 -177.5,719.7 L-177.5,719.7 C-176.3,721.5 -176.7,724 -178.6,725.3 L-178.6,725.3 C-179.3,725.8 -180.1,726 -180.8,726 L-180.8,726 C-182.1,726 -183.4,725.3 -184.1,724.2 z M144.1,720.3 C142.2,719.1 141.7,716.7 142.9,714.8 L142.9,714.8 C144.1,712.9 146.6,712.4 148.4,713.5 L148.4,713.5 C150.3,714.7 150.8,717.1 149.6,719 L149.6,719 C148.8,720.2 147.5,720.9 146.2,720.9 L146.2,720.9 C145.5,720.9 144.8,720.7 144.1,720.3 z M-203.4,688.3 C-204.2,686.3 -203.3,683.9 -201.2,683.1 L-201.2,683.1 C-199.2,682.3 -196.8,683.2 -196,685.3 L-196,685.3 C-195.2,687.3 -196.1,689.7 -198.2,690.5 L-198.2,690.5 C-198.7,690.7 -199.2,690.8 -199.7,690.8 L-199.7,690.8 C-201.2,690.8 -202.7,689.8 -203.4,688.3 z M162.6,684.9 C160.5,684.1 159.5,681.8 160.3,679.8 L160.3,679.8 C161.1,677.7 163.4,676.7 165.4,677.5 L165.4,677.5 C167.5,678.3 168.5,680.6 167.7,682.6 L167.7,682.6 C167.1,684.2 165.6,685.2 164,685.2 L164,685.2 C163.5,685.2 163.1,685.1 162.6,684.9 z M-214.9,649.2 C-215.3,647 -213.9,644.9 -211.7,644.5 L-211.7,644.5 C-209.5,644.1 -207.4,645.5 -207,647.7 L-207,647.7 C-206.6,649.9 -208,652 -210.2,652.4 L-210.2,652.4 C-210.4,652.4 -210.7,652.5 -210.9,652.5 L-210.9,652.5 C-212.9,652.5 -214.5,651.1 -214.9,649.2 z M173.5,646.5 C171.3,646.2 169.8,644.1 170.2,641.9 L170.2,641.9 C170.5,639.7 172.6,638.2 174.8,638.6 L174.8,638.6 C177,638.9 178.5,641 178.1,643.2 L178.1,643.2 C177.8,645.2 176.1,646.6 174.2,646.6 L174.2,646.6 C174,646.5 173.8,646.5 173.5,646.5 z M-214.4,612.7 C-216.6,612.6 -218.4,610.8 -218.3,608.6 L-218.3,608.6 L-218.3,608.6 L-218.3,608.6 C-218.3,606.4 -216.4,604.6 -214.2,604.7 L-214.2,604.7 C-212,604.7 -210.2,606.6 -210.3,608.8 L-210.3,608.8 C-210.3,611 -212.1,612.7 -214.4,612.7 L-214.4,612.7 C-214.3,612.7 -214.3,612.7 -214.4,612.7 z M172.2,602.9 C172.1,600.7 173.8,598.8 176,598.7 L176,598.7 C178.2,598.6 180.1,600.3 180.2,602.5 L180.2,602.5 C180.3,604.7 178.6,606.6 176.4,606.7 L176.4,606.7 C176.3,606.7 176.3,606.7 176.2,606.7 L176.2,606.7 C174.1,606.7 172.3,605 172.2,602.9 z M-210.3,573 C-212.5,572.5 -213.8,570.4 -213.3,568.2 L-213.3,568.2 C-212.8,566 -210.7,564.7 -208.5,565.2 L-208.5,565.2 C-206.3,565.7 -205,567.8 -205.5,570 L-205.5,570 C-205.9,571.8 -207.6,573.1 -209.4,573.1 L-209.4,573.1 C-209.7,573.1 -210,573 -210.3,573 z M166.2,564.2 L166.2,564.2 C165.6,562.1 166.9,559.9 169.1,559.3 L169.1,559.3 C171.2,558.7 173.4,560 174,562.2 L174,562.2 C174,562.2 174,562.2 174,562.2 L174,562.2 C174.6,564.3 173.3,566.5 171.1,567.1 L171.1,567.1 C170.8,567.2 170.4,567.2 170.1,567.2 L170.1,567.2 C168.3,567.2 166.7,566 166.2,564.2 z M-198.2,534.9 C-200.2,534 -201.1,531.6 -200.2,529.6 L-200.2,529.6 L-200.2,529.6 L-200.2,529.6 C-199.3,527.6 -196.9,526.7 -194.9,527.6 L-194.9,527.6 C-192.9,528.5 -192,530.9 -192.9,532.9 L-192.9,532.9 C-193.6,534.4 -195,535.2 -196.5,535.2 L-196.5,535.2 C-197.1,535.3 -197.7,535.1 -198.2,534.9 z M152.5,527.6 L152.5,527.6 C151.5,525.6 152.3,523.2 154.3,522.3 L154.3,522.3 C156.3,521.3 158.7,522.1 159.7,524.1 L159.7,524.1 C160.7,526.1 159.9,528.5 157.9,529.5 L157.9,529.5 C157.3,529.8 156.7,529.9 156.1,529.9 L156.1,529.9 C154.6,529.8 153.2,529 152.5,527.6 z M-178.7,500 C-180.5,498.7 -180.9,496.2 -179.6,494.4 L-179.6,494.4 C-178.3,492.6 -175.8,492.2 -174,493.5 L-174,493.5 C-172.2,494.8 -171.8,497.3 -173.2,499.1 L-173.2,499.1 C-174,500.2 -175.2,500.7 -176.4,500.7 L-176.4,500.7 C-177.2,500.8 -178,500.6 -178.7,500 z M131.7,494.5 C130.3,492.8 130.7,490.2 132.4,488.9 L132.4,488.9 C134.1,487.5 136.6,487.9 138,489.6 L138,489.6 C139.4,491.3 139.1,493.8 137.3,495.2 L137.3,495.2 C136.6,495.8 135.7,496.1 134.8,496.1 L134.8,496.1 C133.6,496 132.5,495.5 131.7,494.5 z M-152.5,469.9 C-154,468.2 -153.8,465.7 -152.2,464.2 L-152.2,464.2 C-150.6,462.7 -148,462.9 -146.6,464.5 L-146.6,464.5 C-145.1,466.1 -145.3,468.7 -146.9,470.1 L-146.9,470.1 C-147.7,470.8 -148.6,471.1 -149.6,471.1 L-149.6,471.1 C-150.6,471.2 -151.7,470.8 -152.5,469.9 z M104.5,466.3 C102.8,464.9 102.6,462.3 104,460.7 L104,460.7 C105.4,459 108,458.8 109.6,460.2 L109.6,460.2 C111.3,461.6 111.5,464.2 110.1,465.8 L110.1,465.8 C109.3,466.7 108.2,467.2 107,467.2 L107,467.2 C106.2,467.3 105.3,467 104.5,466.3 z M-120.7,445.8 C-121.8,443.9 -121.2,441.4 -119.3,440.3 L-119.3,440.3 L-119.3,440.3 L-119.3,440.3 C-117.4,439.2 -114.9,439.8 -113.8,441.7 L-113.8,441.7 C-112.7,443.6 -113.3,446.1 -115.3,447.2 L-115.3,447.2 C-115.9,447.6 -116.6,447.7 -117.3,447.7 L-117.3,447.7 C-118.6,447.8 -119.9,447 -120.7,445.8 z M72.2,444.3 L72.2,444.3 C70.3,443.3 69.5,440.8 70.6,438.9 L70.6,438.9 C71.6,437 74.1,436.2 76,437.3 L76,437.3 C77.9,438.3 78.7,440.8 77.6,442.7 L77.6,442.7 C76.9,444 75.5,444.8 74.1,444.8 L74.1,444.8 C73.5,444.8 72.8,444.6 72.2,444.3 z M-84.6,428.6 C-85.3,426.5 -84.2,424.2 -82.1,423.5 L-82.1,423.5 C-82.1,423.5 -82.1,423.5 -82.1,423.5 L-82.1,423.5 C-80,422.8 -77.7,423.9 -77,426 L-77,426 C-76.3,428.1 -77.4,430.4 -79.5,431.1 L-79.5,431.1 C-79.9,431.2 -80.3,431.3 -80.8,431.3 L-80.8,431.3 C-82.5,431.3 -84.1,430.2 -84.6,428.6 z M36.1,429.3 C34,428.7 32.8,426.4 33.4,424.3 L33.4,424.3 C34,422.2 36.3,421 38.4,421.6 L38.4,421.6 C40.5,422.2 41.7,424.5 41.1,426.6 L41.1,426.6 C40.6,428.3 39,429.5 37.3,429.5 L37.3,429.5 C36.9,429.5 36.5,429.4 36.1,429.3 z M-45.9,419 C-46.2,416.8 -44.6,414.8 -42.4,414.6 L-42.4,414.6 C-40.2,414.3 -38.2,415.9 -37.9,418.1 L-37.9,418.1 C-37.6,420.3 -39.2,422.3 -41.4,422.5 L-41.4,422.5 C-41.6,422.5 -41.7,422.5 -41.9,422.5 L-41.9,422.5 C-43.9,422.6 -45.6,421.1 -45.9,419 z M-2.3,421.9 C-4.5,421.7 -6.1,419.8 -5.9,417.6 L-5.9,417.6 C-5.7,415.4 -3.8,413.8 -1.6,414 L-1.6,414 C0.6,414.2 2.2,416.1 2,418.3 L2,418.3 C1.8,420.4 0.1,422 -2,422 L-2,422 C-2.1,421.9 -2.2,421.9 -2.3,421.9 z" fill="#FFFFFF"/>
      <path d="M1520.6,974.6 C1520.6,972.4 1522.4,970.6 1524.7,970.6 L1524.7,970.6 C1526.9,970.6 1528.7,972.5 1528.6,974.7 L1528.6,974.7 C1528.6,976.9 1526.8,978.7 1524.6,978.6 L1524.6,978.6 L1524.6,978.6 L1524.6,978.6 C1522.3,978.6 1520.6,976.8 1520.6,974.6 z M1560.5,972.6 C1560.2,970.4 1561.7,968.4 1563.9,968.1 L1563.9,968.1 C1566.1,967.8 1568.1,969.3 1568.4,971.5 L1568.4,971.5 C1568.7,973.7 1567.2,975.7 1565,976 L1565,976 L1565,976 L1565,976 C1564.8,976 1564.6,976 1564.4,976 L1564.4,976 C1562.5,976.1 1560.8,974.6 1560.5,972.6 z M1484.1,974.9 L1484.1,974.9 L1484.1,974.9 C1481.9,974.5 1480.5,972.4 1480.8,970.3 L1480.8,970.3 C1481.2,968.1 1483.2,966.7 1485.4,967 L1485.4,967 C1487.6,967.4 1489,969.5 1488.7,971.6 L1488.7,971.6 C1488.4,973.5 1486.7,974.9 1484.8,974.9 L1484.8,974.9 C1484.6,975 1484.4,975 1484.1,974.9 z M1599.6,964.4 C1598.9,962.3 1600.1,960.1 1602.2,959.4 L1602.2,959.4 C1604.3,958.7 1606.5,959.9 1607.2,962 L1607.2,962 C1607.9,964.1 1606.7,966.3 1604.6,967 L1604.6,967 C1604.6,967 1604.6,967 1604.6,967 L1604.6,967 C1604.2,967.1 1603.8,967.2 1603.4,967.2 L1603.4,967.2 C1601.7,967.2 1600.1,966.1 1599.6,964.4 z M1444.8,964.9 C1444.8,964.9 1444.8,964.9 1444.8,964.9 L1444.8,964.9 C1442.7,964.2 1441.6,961.9 1442.3,959.8 L1442.3,959.8 C1443,957.7 1445.3,956.6 1447.4,957.3 L1447.4,957.3 C1449.5,958 1450.6,960.3 1449.9,962.4 L1449.9,962.4 C1449.3,964.1 1447.8,965.1 1446.1,965.1 L1446.1,965.1 C1445.7,965.1 1445.3,965 1444.8,964.9 z M1636.9,950.1 C1635.9,948.1 1636.7,945.7 1638.7,944.7 L1638.7,944.7 C1640.7,943.7 1643.1,944.5 1644.1,946.5 L1644.1,946.5 C1645.1,948.5 1644.3,950.9 1642.3,951.9 L1642.3,951.9 C1641.7,952.2 1641.1,952.3 1640.5,952.3 L1640.5,952.3 C1639,952.3 1637.6,951.5 1636.9,950.1 z M1407.6,948.7 C1405.6,947.7 1404.9,945.2 1406,943.3 L1406,943.3 C1407,941.3 1409.5,940.6 1411.4,941.6 L1411.4,941.6 C1413.4,942.6 1414.1,945.1 1413.1,947 L1413.1,947 C1412.4,948.3 1411,949.1 1409.6,949.1 L1409.6,949.1 C1408.8,949.1 1408.2,949 1407.6,948.7 z M1671.4,930.1 C1670.1,928.3 1670.5,925.8 1672.3,924.5 L1672.3,924.5 C1674.1,923.2 1676.6,923.6 1677.9,925.4 L1677.9,925.4 C1679.2,927.2 1678.8,929.7 1677,931 L1677,931 C1677,931 1677,931 1677,931 L1677,931 C1676.3,931.5 1675.5,931.8 1674.7,931.8 L1674.7,931.8 C1673.4,931.7 1672.2,931.1 1671.4,930.1 z M1373.4,926.8 C1371.6,925.5 1371.3,923 1372.6,921.2 L1372.6,921.2 C1373.9,919.4 1376.4,919.1 1378.2,920.4 L1378.2,920.4 C1380,921.7 1380.3,924.3 1379,926 L1379,926 C1378.2,927 1377,927.6 1375.8,927.6 L1375.8,927.6 C1375,927.6 1374.1,927.3 1373.4,926.8 z M1702.4,904.8 C1700.9,903.2 1700.9,900.7 1702.4,899.1 L1702.4,899.1 C1704,897.5 1706.5,897.6 1708.1,899.1 L1708.1,899.1 C1709.6,900.7 1709.6,903.2 1708.1,904.8 L1708.1,904.8 L1708.1,904.8 L1708.1,904.8 C1707.3,905.6 1706.3,906 1705.3,906 L1705.3,906 C1704.2,906 1703.2,905.6 1702.4,904.8 z M1343.1,899.8 C1341.6,898.2 1341.6,895.7 1343.2,894.1 L1343.2,894.1 C1344.8,892.6 1347.3,892.6 1348.9,894.2 L1348.9,894.2 C1350.4,895.8 1350.4,898.3 1348.8,899.9 L1348.8,899.9 C1348,900.6 1347,901 1346,901 L1346,901 C1344.9,901 1343.9,900.6 1343.1,899.8 z M1729,875 C1727.2,873.7 1726.8,871.2 1728.2,869.4 L1728.2,869.4 C1729.5,867.6 1732,867.2 1733.8,868.6 L1733.8,868.6 C1735.6,869.9 1736,872.4 1734.7,874.2 L1734.7,874.2 C1733.9,875.3 1732.7,875.8 1731.5,875.8 L1731.5,875.8 C1730.6,875.8 1729.7,875.5 1729,875 z M1317.4,868.4 C1316.1,866.6 1316.6,864.1 1318.4,862.8 L1318.4,862.8 C1320.2,861.5 1322.7,862 1324,863.8 L1324,863.8 C1325.3,865.6 1324.8,868.1 1323,869.4 L1323,869.4 C1322.3,869.9 1321.5,870.1 1320.7,870.1 L1320.7,870.1 C1319.4,870.1 1318.2,869.5 1317.4,868.4 z M1750.6,841.4 C1748.6,840.4 1747.9,838 1748.9,836 L1748.9,836 C1749.9,834 1752.3,833.3 1754.3,834.3 L1754.3,834.3 C1756.3,835.3 1757,837.7 1756,839.7 L1756,839.7 L1756,839.7 L1756,839.7 C1755.3,841.1 1753.9,841.9 1752.4,841.9 L1752.4,841.9 C1751.8,841.9 1751.2,841.7 1750.6,841.4 z M1297,833.4 L1297,833.4 L1297,833.4 C1296,831.4 1296.9,829 1298.9,828.1 L1298.9,828.1 C1300.9,827.1 1303.3,828 1304.2,830 L1304.2,830 C1305.2,832 1304.3,834.4 1302.3,835.3 L1302.3,835.3 C1301.7,835.6 1301.1,835.7 1300.6,835.7 L1300.6,835.7 C1299.1,835.6 1297.6,834.8 1297,833.4 z M1766.7,804.8 C1764.6,804.1 1763.5,801.8 1764.1,799.8 L1764.1,799.8 C1764.8,797.7 1767.1,796.6 1769.1,797.2 L1769.1,797.2 C1771.2,797.9 1772.3,800.2 1771.7,802.2 L1771.7,802.2 C1771.1,803.9 1769.6,805 1767.9,805 L1767.9,805 C1767.5,805 1767.1,804.9 1766.7,804.8 z M1282.3,795.5 C1282.3,795.5 1282.3,795.5 1282.3,795.5 L1282.3,795.5 C1281.7,793.4 1282.9,791.2 1285,790.5 L1285,790.5 C1287.1,789.9 1289.3,791.1 1290,793.2 L1290,793.2 C1290.6,795.3 1289.4,797.5 1287.3,798.2 L1287.3,798.2 C1286.9,798.3 1286.5,798.4 1286.2,798.4 L1286.2,798.4 C1284.4,798.4 1282.8,797.2 1282.3,795.5 z M1776.7,766.1 C1774.5,765.8 1773,763.7 1773.4,761.5 L1773.4,761.5 C1773.7,759.3 1775.8,757.8 1778,758.2 L1778,758.2 C1780.2,758.5 1781.7,760.6 1781.3,762.8 L1781.3,762.8 C1781.3,762.8 1781.3,762.8 1781.3,762.8 L1781.3,762.8 C1781,764.8 1779.3,766.2 1777.4,766.2 L1777.4,766.2 C1777.1,766.2 1776.9,766.1 1776.7,766.1 z M1273.9,755.8 C1273.6,753.6 1275.2,751.6 1277.4,751.3 L1277.4,751.3 C1279.6,751 1281.6,752.6 1281.9,754.8 L1281.9,754.8 C1282.2,757 1280.6,759 1278.4,759.3 L1278.4,759.3 C1278.2,759.3 1278,759.3 1277.9,759.3 L1277.9,759.3 C1275.9,759.3 1274.2,757.8 1273.9,755.8 z M1776.4,722.3 C1776.4,720.1 1778.2,718.3 1780.4,718.3 L1780.4,718.3 C1782.6,718.3 1784.4,720.1 1784.4,722.3 L1784.4,722.3 C1784.4,724.5 1782.6,726.3 1780.4,726.3 L1780.4,726.3 C1778.2,726.3 1776.4,724.5 1776.4,722.3 z M1275.7,719.4 C1273.5,719.3 1271.7,717.5 1271.8,715.3 L1271.8,715.3 C1271.8,715.3 1271.8,715.3 1271.8,715.3 L1271.8,715.3 C1271.9,713.1 1273.7,711.3 1275.9,711.4 L1275.9,711.4 C1278.1,711.5 1279.9,713.3 1279.8,715.5 L1279.8,715.5 C1279.7,717.7 1278,719.4 1275.8,719.4 L1275.8,719.4 C1275.8,719.4 1275.8,719.4 1275.7,719.4 z M1775.1,696.7 C1774.9,694.5 1776.5,692.5 1778.7,692.3 L1778.7,692.3 C1780.9,692.1 1782.9,693.7 1783.1,695.9 L1783.1,695.9 C1783.3,698.1 1781.7,700.1 1779.5,700.3 L1779.5,700.3 C1779.4,700.3 1779.2,700.3 1779.1,700.3 L1779.1,700.3 C1777,700.3 1775.3,698.8 1775.1,696.7 z M1279.3,679.6 C1277.1,679.2 1275.7,677.1 1276.1,674.9 L1276.1,674.9 C1276.1,674.9 1276.1,674.9 1276.1,674.9 L1276.1,674.9 C1276.5,672.7 1278.6,671.3 1280.8,671.7 L1280.8,671.7 C1283,672.1 1284.4,674.2 1284,676.4 L1284,676.4 C1283.6,678.3 1282,679.7 1280.1,679.7 L1280.1,679.7 C1279.8,679.7 1279.5,679.7 1279.3,679.6 z M1768,658 L1768,658 C1767.4,655.9 1768.7,653.7 1770.8,653.1 L1770.8,653.1 C1772.9,652.5 1775.1,653.8 1775.7,655.9 L1775.7,655.9 C1775.7,655.9 1775.7,655.9 1775.7,655.9 L1775.7,655.9 C1776.3,658 1775,660.2 1772.9,660.8 L1772.9,660.8 C1772.6,660.9 1772.2,660.9 1771.9,660.9 L1771.9,660.9 C1770.1,661 1768.5,659.8 1768,658 z M1289.1,640.9 C1287,640.1 1285.9,637.9 1286.7,635.8 L1286.7,635.8 C1287.5,633.7 1289.7,632.6 1291.8,633.4 L1291.8,633.4 C1293.9,634.1 1295,636.4 1294.2,638.5 L1294.2,638.5 C1293.6,640.1 1292.1,641.1 1290.4,641.1 L1290.4,641.1 C1290,641.1 1289.6,641 1289.1,640.9 z M1754.8,621 L1754.8,621 C1753.9,619 1754.8,616.6 1756.8,615.7 L1756.8,615.7 C1758.8,614.8 1761.2,615.7 1762.1,617.7 L1762.1,617.7 C1763,619.7 1762.1,622.1 1760.1,623 L1760.1,623 C1759.6,623.2 1759,623.3 1758.5,623.3 L1758.5,623.3 C1757,623.3 1755.5,622.5 1754.8,621 z M1305,604.2 C1303.1,603.1 1302.4,600.7 1303.4,598.8 L1303.4,598.8 C1304.5,596.9 1306.9,596.2 1308.8,597.2 L1308.8,597.2 C1310.7,598.3 1311.4,600.7 1310.4,602.6 L1310.4,602.6 C1309.7,603.9 1308.3,604.7 1306.9,604.7 L1306.9,604.7 C1306.3,604.7 1305.6,604.5 1305,604.2 z M1736,586.5 L1736,586.5 C1734.8,584.7 1735.3,582.2 1737.2,581 L1737.2,581 C1739,579.8 1741.5,580.3 1742.7,582.2 L1742.7,582.2 C1743.9,584 1743.4,586.5 1741.6,587.7 L1741.6,587.7 C1740.9,588.1 1740.2,588.4 1739.4,588.4 L1739.4,588.4 C1738,588.3 1736.8,587.7 1736,586.5 z M1326.5,570.5 C1324.7,569.1 1324.4,566.6 1325.8,564.9 L1325.8,564.9 C1327.2,563.2 1329.7,562.9 1331.4,564.2 L1331.4,564.2 C1333.2,565.6 1333.5,568.1 1332.1,569.8 L1332.1,569.8 C1331.3,570.8 1330.1,571.3 1328.9,571.3 L1328.9,571.3 C1328.1,571.3 1327.2,571.1 1326.5,570.5 z M1711.9,555.4 C1710.4,553.8 1710.5,551.2 1712.2,549.7 L1712.2,549.7 C1713.8,548.2 1716.4,548.3 1717.8,550 L1717.8,550 C1719.3,551.6 1719.2,554.2 1717.5,555.6 L1717.5,555.6 C1716.7,556.3 1715.8,556.6 1714.8,556.6 L1714.8,556.6 C1713.8,556.7 1712.7,556.3 1711.9,555.4 z M1353,540.6 C1351.5,539 1351.6,536.5 1353.2,534.9 L1353.2,534.9 L1353.2,534.9 L1353.2,534.9 C1354.8,533.4 1357.3,533.5 1358.8,535.1 L1358.8,535.1 C1360.3,536.7 1360.2,539.3 1358.6,540.8 L1358.6,540.8 C1357.8,541.5 1356.8,541.9 1355.9,541.9 L1355.9,541.9 C1354.8,541.9 1353.8,541.4 1353,540.6 z M1683.3,528.5 L1683.3,528.5 C1681.6,527.1 1681.3,524.6 1682.7,522.9 L1682.7,522.9 C1684.1,521.2 1686.6,520.9 1688.3,522.3 L1688.3,522.3 C1690,523.7 1690.3,526.2 1688.9,527.9 L1688.9,527.9 C1688.1,528.9 1686.9,529.4 1685.8,529.4 L1685.8,529.4 C1684.9,529.4 1684,529.1 1683.3,528.5 z M1383.8,515.2 C1382.6,513.4 1383,510.9 1384.9,509.7 L1384.9,509.7 C1384.9,509.7 1384.9,509.7 1384.9,509.7 L1384.9,509.7 C1386.7,508.5 1389.2,508.9 1390.4,510.8 L1390.4,510.8 C1391.6,512.6 1391.2,515.1 1389.3,516.3 L1389.3,516.3 C1388.6,516.8 1387.8,517 1387.1,517 L1387.1,517 C1385.9,517 1384.6,516.4 1383.8,515.2 z M1650.8,506.4 C1648.9,505.3 1648.2,502.9 1649.3,500.9 L1649.3,500.9 C1650.4,499 1652.8,498.3 1654.8,499.4 L1654.8,499.4 C1656.7,500.5 1657.4,502.9 1656.3,504.9 L1656.3,504.9 C1655.6,506.2 1654.2,506.9 1652.8,506.9 L1652.8,506.9 C1652.1,506.9 1651.4,506.7 1650.8,506.4 z M1418.3,495 C1417.4,493 1418.2,490.6 1420.3,489.7 L1420.3,489.7 C1422.3,488.8 1424.7,489.6 1425.6,491.7 L1425.6,491.7 C1426.5,493.7 1425.7,496.1 1423.6,497 L1423.6,497 C1423.1,497.2 1422.5,497.4 1421.9,497.4 L1421.9,497.4 C1420.4,497.3 1419,496.5 1418.3,495 z M1615.2,489.7 L1615.2,489.7 C1613.1,488.9 1612.1,486.6 1612.8,484.5 L1612.8,484.5 C1613.6,482.4 1615.9,481.4 1618,482.2 L1618,482.2 L1618,482.2 L1618,482.2 C1620.1,483 1621.1,485.3 1620.3,487.3 L1620.3,487.3 C1619.7,488.9 1618.2,489.9 1616.6,489.9 L1616.6,489.9 C1616.1,490 1615.6,489.9 1615.2,489.7 z M1455.5,480.5 C1454.9,478.4 1456.1,476.2 1458.3,475.6 L1458.3,475.6 C1460.4,475 1462.6,476.2 1463.2,478.4 L1463.2,478.4 C1463.8,480.5 1462.6,482.7 1460.4,483.3 L1460.4,483.3 C1460,483.4 1459.7,483.5 1459.3,483.5 L1459.3,483.5 C1457.6,483.5 1456,482.3 1455.5,480.5 z M1577.3,478.9 C1575.1,478.5 1573.7,476.4 1574.2,474.2 L1574.2,474.2 C1574.6,472 1576.7,470.6 1578.9,471.1 L1578.9,471.1 C1581.1,471.5 1582.5,473.6 1582,475.8 L1582,475.8 C1581.6,477.7 1579.9,479 1578.1,479 L1578.1,479 C1577.9,479 1577.6,478.9 1577.3,478.9 z M1494.6,472.2 C1494.3,470 1495.9,468 1498.1,467.8 L1498.1,467.8 C1500.3,467.6 1502.3,469.1 1502.5,471.3 L1502.5,471.3 C1502.8,473.5 1501.2,475.5 1499,475.7 L1499,475.7 C1498.8,475.7 1498.7,475.7 1498.5,475.7 L1498.5,475.7 C1496.5,475.7 1494.8,474.2 1494.6,472.2 z M1538.3,474.2 L1538.3,474.2 C1536.1,474.1 1534.4,472.2 1534.5,470 L1534.5,470 C1534.6,467.8 1536.5,466.1 1538.7,466.2 L1538.7,466.2 C1538.7,466.2 1538.7,466.2 1538.7,466.2 L1538.7,466.2 C1540.9,466.3 1542.6,468.2 1542.5,470.4 L1542.5,470.4 C1542.4,472.5 1540.6,474.2 1538.5,474.2 L1538.5,474.2 C1538.4,474.2 1538.4,474.2 1538.3,474.2 z" fill="#FFFFFF"/>
      <path d="M1528.1,879.3 C1441.6,879.3 1371.2,808.9 1371.2,722.4 C1371.2,635.9 1441.6,565.5 1528.1,565.5 L1528.1,569.5 C1443.8,569.5 1375.2,638.1 1375.2,722.4 C1375.2,806.7 1443.8,875.3 1528.1,875.3 C1612.4,875.3 1681,806.7 1681,722.4 C1681,687.8 1669.7,655.1 1648.3,627.9 L1651.4,625.4 C1673.3,653.3 1684.9,686.8 1684.9,722.4 C1685,808.9 1614.6,879.3 1528.1,879.3 z" fill="#FFFFFF"/>
      <g>
        <path d="M318,514 C318,547.137 291.137,574 258,574 C224.863,574 198,547.137 198,514 C198,480.863 224.863,454 258,454 C291.137,454 318,480.863 318,514 z" fill="#FFFFFF"/>
        <path d="M258,576 C223.8,576 196,548.2 196,514 C196,479.8 223.8,452 258,452 C292.2,452 320,479.8 320,514 C320,548.2 292.2,576 258,576 z M258,456 C226,456 200,482 200,514 C200,546 226,572 258,572 C290,572 316,546 316,514 C316,482 290,456 258,456 z" fill="#FFFFFF"/>
      </g>
      <g>
        <path d="M1528.5,554.9 C1521.6,554.9 1516,560.5 1516,567.4 C1516,574.3 1521.6,579.9 1528.5,579.9 C1535.4,579.9 1541,574.3 1541,567.4 C1541,560.5 1535.4,554.9 1528.5,554.9 z M1528.5,573 C1525.4,573 1522.8,570.5 1522.8,567.3 C1522.8,564.1 1525.3,561.6 1528.5,561.6 C1531.6,561.6 1534.2,564.1 1534.2,567.3 C1534.2,570.5 1531.6,573 1528.5,573 z" fill="#FFFFFF"/>
        <path d="M1534.2,567.4 C1534.2,570.548 1531.648,573.1 1528.5,573.1 C1525.352,573.1 1522.8,570.548 1522.8,567.4 C1522.8,564.252 1525.352,561.7 1528.5,561.7 C1531.648,561.7 1534.2,564.252 1534.2,567.4 z" fill="#FFFFFF"/>
      </g>
      <path d="M258,501.5 L270.5,501.5 L270.5,514 L258,514 L258,501.5 z M245.5,526.5 L258,526.5 L258,514 L245.5,514 L245.5,526.5 z" fill="#FFFFFF"/>
      <path d="M1810,923 L1825,923 L1825,938 L1810,938 z" fill="#FFFFFF"/>
      <path d="M1675.2,1013.2 C1662.6,1013.2 1652.3,1002.9 1652.3,990.3 C1652.3,977.7 1662.6,967.4 1675.2,967.4 C1687.8,967.4 1698.1,977.7 1698.1,990.3 C1698.1,1002.9 1687.8,1013.2 1675.2,1013.2 z" fill="#FFFFFF"/>
      <path d="M372.4,141.3 C365.5,141.3 359.9,135.7 359.9,128.8 C359.9,121.9 365.5,116.3 372.4,116.3 C379.3,116.3 384.9,121.9 384.9,128.8 C384.9,135.7 379.3,141.3 372.4,141.3 z" fill="#FFFFFF"/>
      <path d="M1387.2,524.3 C1380.3,524.3 1374.7,518.7 1374.7,511.8 C1374.7,504.9 1380.3,499.3 1387.2,499.3 C1394.1,499.3 1399.7,504.9 1399.7,511.8 C1399.7,518.7 1394.1,524.3 1387.2,524.3 z" fill="#FFFFFF"/>
      <path d="M1683,596.9 L1680.1,594 L2040,234.1 L2042.9,237 z" fill="#FFFFFF"/>
      <g>
        <path d="M1709,628 C1709,661.137 1682.137,688 1649,688 C1615.863,688 1589,661.137 1589,628 C1589,594.863 1615.863,568 1649,568 C1682.137,568 1709,594.863 1709,628 z" fill="#FFFFFF"/>
        <path d="M1649,690 C1614.8,690 1587,662.2 1587,628 C1587,593.8 1614.8,566 1649,566 C1683.2,566 1711,593.8 1711,628 C1711,662.2 1683.2,690 1649,690 z M1649,570 C1617,570 1591,596 1591,628 C1591,660 1617,686 1649,686 C1681,686 1707,660 1707,628 C1707,596 1681,570 1649,570 z" fill="#FFFFFF"/>
      </g>
      <path d="M1642.9,640.5 L1636.5,640.5 L1636.5,627 L1642.9,627 L1642.9,640.5 z M1652.2,621.2 L1645.8,621.2 L1645.8,640.5 L1652.2,640.5 L1652.2,621.2 z M1661.5,615.5 L1655.1,615.5 L1655.1,640.5 L1661.5,640.5 L1661.5,615.5 z" fill="#FFFFFF"/>
      <g>
        <path d="M91.6,761.6 C84.7,761.6 79.1,767.2 79.1,774.1 C79.1,781 84.7,786.6 91.6,786.6 C98.5,786.6 104.1,781 104.1,774.1 C104.1,767.2 98.5,761.6 91.6,761.6 z M91.6,779.8 C88.5,779.8 85.9,777.3 85.9,774.1 C85.9,770.9 88.4,768.4 91.6,768.4 C94.7,768.4 97.3,770.9 97.3,774.1 C97.3,777.3 94.8,779.8 91.6,779.8 z" fill="#FFFFFF"/>
        <path d="M97.3,774.1 C97.3,777.248 94.748,779.8 91.6,779.8 C88.452,779.8 85.9,777.248 85.9,774.1 C85.9,770.952 88.452,768.4 91.6,768.4 C94.748,768.4 97.3,770.952 97.3,774.1 z" fill="#FFFFFF"/>
      </g>
    </g>
  </g>
</svg>
